<svg
                width="30"
                height="30"
                viewBox="0 0 30 30"
                fill="none"
                xmlns="http://www.w3.org/2000/svg"
              >
                <g clip-path="url(#clip0)">
                  <path
                    d="M28.4277 1.47558L28.3929 1.44425C27.7272 0.84418 26.8644 0.513672 25.9632 0.513672C24.953 0.513672 23.983 0.935724 23.3019 1.67151L10.4239 15.5854C10.3065 15.7122 10.2175 15.8618 10.1625 16.0247L8.64821 20.5048C8.47313 21.0227 8.561 21.5955 8.88322 22.037C9.208 22.4818 9.73124 22.7475 10.283 22.7475H10.2831C10.5217 22.7475 10.755 22.699 10.9763 22.6035L15.3606 20.7106C15.52 20.6418 15.663 20.5407 15.7803 20.4139L28.6584 6.50012C29.9985 5.05235 29.8951 2.79851 28.4277 1.47558ZM11.5495 19.6772L12.438 17.0483L12.513 16.9673L14.1971 18.4854L14.1222 18.5664L11.5495 19.6772ZM26.8223 4.84488L15.8743 16.6734L14.1902 15.1553L25.1381 3.32675C25.3523 3.0954 25.6453 2.96794 25.9633 2.96794C26.2422 2.96794 26.5094 3.07036 26.7162 3.25673L26.7509 3.28806C27.2055 3.69784 27.2375 4.39624 26.8223 4.84488Z"
                    fill="black"
                  />
                  <path
                    d="M25.9289 11.835C25.2422 11.835 24.6855 12.3845 24.6855 13.0622V23.4803C24.6855 25.2011 23.2669 26.6011 21.5233 26.6011H6.45283C4.70911 26.6011 3.29059 25.2011 3.29059 23.4803V8.72835C3.29059 7.00758 4.70919 5.60759 6.45283 5.60759H17.3609C18.0476 5.60759 18.6043 5.05816 18.6043 4.38045C18.6043 3.70275 18.0476 3.15332 17.3609 3.15332H6.45283C3.33784 3.15332 0.803711 5.6543 0.803711 8.72835V23.4802C0.803711 26.5543 3.33793 29.0553 6.45283 29.0553H21.5232C24.6381 29.0553 27.1723 26.5543 27.1723 23.4802V13.0622C27.1724 12.3845 26.6156 11.835 25.9289 11.835Z"
                    fill="black"
                  />
                </g>
                <defs>
                  <clipPath id="clip0">
                    <rect
                      width="28.9209"
                      height="28.5417"
                      fill="white"
                      transform="translate(0.741333 0.513672)"
                    />
                  </clipPath>
                </defs>
              </svg>
